<?xml version="1.0" encoding="utf-8" standalone="no"?>
<!DOCTYPE svg PUBLIC "-//W3C//DTD SVG 1.1//EN"
  "http://www.w3.org/Graphics/SVG/1.1/DTD/svg11.dtd">
<svg xmlns:xlink="http://www.w3.org/1999/xlink" width="720pt" height="576pt" viewBox="0 0 720 576" xmlns="http://www.w3.org/2000/svg" version="1.1">
 <metadata>
  <rdf:RDF xmlns:dc="http://purl.org/dc/elements/1.1/" xmlns:cc="http://creativecommons.org/ns#" xmlns:rdf="http://www.w3.org/1999/02/22-rdf-syntax-ns#">
   <cc:Work>
    <dc:type rdf:resource="http://purl.org/dc/dcmitype/StillImage"/>
    <dc:date>2025-03-12T18:27:45.462787</dc:date>
    <dc:format>image/svg+xml</dc:format>
    <dc:creator>
     <cc:Agent>
      <dc:title>Matplotlib v3.7.1, https://matplotlib.org/</dc:title>
     </cc:Agent>
    </dc:creator>
   </cc:Work>
  </rdf:RDF>
 </metadata>
 <defs>
  <style type="text/css">*{stroke-linejoin: round; stroke-linecap: butt}</style>
 </defs>
 <g id="figure_1">
  <g id="patch_1">
   <path d="M 0 576 
L 720 576 
L 720 0 
L 0 0 
z
" style="fill: #ffffff"/>
  </g>
  <g id="axes_1">
   <g id="patch_2">
    <path d="M 191.28077 235.539771 
Q 191.28077 293.117468 191.28077 349.577132 
" clip-path="url(#p86c5d88c97)" style="fill: none; stroke: #000000; stroke-linecap: round"/>
    <path d="M 193.28077 345.577132 
L 191.28077 349.577132 
L 189.28077 345.577132 
z
" clip-path="url(#p86c5d88c97)" style="stroke: #000000; stroke-linecap: round"/>
   </g>
   <g id="patch_3">
    <path d="M 204.495663 363.282776 
Q 287.617104 359.23427 369.621835 355.240155 
" clip-path="url(#p86c5d88c97)" style="fill: none; stroke: #000000; stroke-linecap: round"/>
    <path d="M 365.529274 353.437116 
L 369.621835 355.240155 
L 365.723867 357.43238 
z
" clip-path="url(#p86c5d88c97)" style="stroke: #000000; stroke-linecap: round"/>
   </g>
   <g id="patch_4">
    <path d="M 395.400896 519.393425 
Q 445.158431 490.61237 493.948172 462.391113 
" clip-path="url(#p86c5d88c97)" style="fill: none; stroke: #000000; stroke-linecap: round"/>
    <path d="M 489.484288 462.662662 
L 493.948172 462.391113 
L 491.487081 466.12515 
z
" clip-path="url(#p86c5d88c97)" style="stroke: #000000; stroke-linecap: round"/>
   </g>
   <g id="patch_5">
    <path d="M 511.871908 443.18119 
Q 581.943257 290.132119 651.549191 138.099605 
" clip-path="url(#p86c5d88c97)" style="fill: none; stroke: #000000; stroke-linecap: round"/>
    <path d="M 648.065595 140.903988 
L 651.549191 138.099605 
L 651.702539 142.569111 
z
" clip-path="url(#p86c5d88c97)" style="stroke: #000000; stroke-linecap: round"/>
   </g>
   <g id="patch_6">
    <path d="M 646.128195 131.784379 
Q 571.56405 175.81675 497.96261 219.280615 
" clip-path="url(#p86c5d88c97)" style="fill: none; stroke: #000000; stroke-linecap: round"/>
    <path d="M 502.423862 218.968804 
L 497.96261 219.280615 
L 500.389912 215.524527 
z
" clip-path="url(#p86c5d88c97)" style="stroke: #000000; stroke-linecap: round"/>
   </g>
   <g id="patch_7">
    <path d="M 478.390058 237.663736 
Q 472.833275 246.199406 467.88647 253.7981 
" clip-path="url(#p86c5d88c97)" style="fill: none; stroke: #000000; stroke-linecap: round"/>
    <path d="M 471.744912 251.537033 
L 467.88647 253.7981 
L 468.392681 249.354706 
z
" clip-path="url(#p86c5d88c97)" style="stroke: #000000; stroke-linecap: round"/>
   </g>
   <g id="patch_8">
    <path d="M 391.128541 141.654911 
Q 375.967307 139.133062 361.908953 136.794662 
" clip-path="url(#p86c5d88c97)" style="fill: none; stroke: #000000; stroke-linecap: round"/>
    <path d="M 365.526578 139.423879 
L 361.908953 136.794662 
L 366.182902 135.478092 
z
" clip-path="url(#p86c5d88c97)" style="stroke: #000000; stroke-linecap: round"/>
   </g>
   <g id="patch_9">
    <path d="M 225.396925 193.748962 
Q 212.303742 159.606523 199.610883 126.50799 
" clip-path="url(#p86c5d88c97)" style="fill: none; stroke: #000000; stroke-linecap: round"/>
    <path d="M 199.175731 130.958905 
L 199.610883 126.50799 
L 202.910524 129.52666 
z
" clip-path="url(#p86c5d88c97)" style="stroke: #000000; stroke-linecap: round"/>
   </g>
   <g id="patch_10">
    <path d="M 170.527104 106.942501 
Q 122.35438 81.547513 75.170678 56.673904 
" clip-path="url(#p86c5d88c97)" style="fill: none; stroke: #000000; stroke-linecap: round"/>
    <path d="M 77.776442 60.30846 
L 75.170678 56.673904 
L 79.641781 56.770027 
z
" clip-path="url(#p86c5d88c97)" style="stroke: #000000; stroke-linecap: round"/>
   </g>
   <g id="patch_11">
    <path d="M 70.39775 60.577755 
Q 126.879979 136.14706 182.692867 210.820832 
" clip-path="url(#p86c5d88c97)" style="fill: none; stroke: #000000; stroke-linecap: round"/>
    <path d="M 181.900134 206.419516 
L 182.692867 210.820832 
L 178.696175 208.814229 
z
" clip-path="url(#p86c5d88c97)" style="stroke: #000000; stroke-linecap: round"/>
   </g>
   <g id="patch_12">
    <path d="M 194.474194 113.113303 
Q 188.353465 113.113303 183.35077 113.113303 
" clip-path="url(#p86c5d88c97)" style="fill: none; stroke: #000000; stroke-linecap: round"/>
    <path d="M 187.35077 115.113303 
L 183.35077 113.113303 
L 187.35077 111.113303 
z
" clip-path="url(#p86c5d88c97)" style="stroke: #000000; stroke-linecap: round"/>
   </g>
   <g id="patch_13">
    <path d="M 454.550235 253.790347 
Q 432.117055 204.819776 410.149509 156.865662 
" clip-path="url(#p86c5d88c97)" style="fill: none; stroke: #000000; stroke-linecap: round"/>
    <path d="M 409.997118 161.335201 
L 410.149509 156.865662 
L 413.633706 159.669298 
z
" clip-path="url(#p86c5d88c97)" style="stroke: #000000; stroke-linecap: round"/>
   </g>
   <g id="patch_14">
    <path d="M 336.462029 141.323176 
Q 288.94576 170.271734 242.384285 198.638599 
" clip-path="url(#p86c5d88c97)" style="fill: none; stroke: #000000; stroke-linecap: round"/>
    <path d="M 246.840826 198.265456 
L 242.384285 198.638599 
L 244.759695 194.84948 
z
" clip-path="url(#p86c5d88c97)" style="stroke: #000000; stroke-linecap: round"/>
   </g>
   <g id="patch_15">
    <path d="M 383.950679 367.768611 
Q 383.950679 440.278785 383.950679 511.670924 
" clip-path="url(#p86c5d88c97)" style="fill: none; stroke: #000000; stroke-linecap: round"/>
    <path d="M 385.950679 507.670924 
L 383.950679 511.670924 
L 381.950679 507.670924 
z
" clip-path="url(#p86c5d88c97)" style="stroke: #000000; stroke-linecap: round"/>
   </g>
   <g id="PathCollection_1">
    <defs>
     <path id="mb456059f8d" d="M 0 13.228757 
C 3.508307 13.228757 6.873396 11.834891 9.354143 9.354143 
C 11.834891 6.873396 13.228757 3.508307 13.228757 0 
C 13.228757 -3.508307 11.834891 -6.873396 9.354143 -9.354143 
C 6.873396 -11.834891 3.508307 -13.228757 0 -13.228757 
C -3.508307 -13.228757 -6.873396 -11.834891 -9.354143 -9.354143 
C -11.834891 -6.873396 -13.228757 -3.508307 -13.228757 0 
C -13.228757 3.508307 -11.834891 6.873396 -9.354143 9.354143 
C -6.873396 11.834891 -3.508307 13.228757 0 13.228757 
z
" style="stroke: #87ceeb"/>
    </defs>
    <g clip-path="url(#p86c5d88c97)">
     <use xlink:href="#mb456059f8d" x="191.28077" y="222.31085" style="fill: #87ceeb; stroke: #87ceeb"/>
     <use xlink:href="#mb456059f8d" x="191.28077" y="363.92642" style="fill: #87ceeb; stroke: #87ceeb"/>
     <use xlink:href="#mb456059f8d" x="383.950679" y="526.016529" style="fill: #87ceeb; stroke: #87ceeb"/>
     <use xlink:href="#mb456059f8d" x="506.365263" y="455.208744" style="fill: #87ceeb; stroke: #87ceeb"/>
     <use xlink:href="#mb456059f8d" x="657.520661" y="125.056785" style="fill: #87ceeb; stroke: #87ceeb"/>
     <use xlink:href="#mb456059f8d" x="485.608007" y="226.57638" style="fill: #87ceeb; stroke: #87ceeb"/>
     <use xlink:href="#mb456059f8d" x="404.175697" y="143.825113" style="fill: #87ceeb; stroke: #87ceeb"/>
     <use xlink:href="#mb456059f8d" x="230.134094" y="206.10184" style="fill: #87ceeb; stroke: #87ceeb"/>
     <use xlink:href="#mb456059f8d" x="182.232736" y="113.113303" style="fill: #87ceeb; stroke: #87ceeb"/>
     <use xlink:href="#mb456059f8d" x="62.479339" y="49.983471" style="fill: #87ceeb; stroke: #87ceeb"/>
     <use xlink:href="#mb456059f8d" x="194.474194" y="113.113303" style="fill: #87ceeb; stroke: #87ceeb"/>
     <use xlink:href="#mb456059f8d" x="460.060616" y="265.819248" style="fill: #87ceeb; stroke: #87ceeb"/>
     <use xlink:href="#mb456059f8d" x="347.758542" y="134.440949" style="fill: #87ceeb; stroke: #87ceeb"/>
     <use xlink:href="#mb456059f8d" x="383.950679" y="354.542255" style="fill: #87ceeb; stroke: #87ceeb"/>
    </g>
   </g>
   <g id="text_1">
    <g clip-path="url(#p86c5d88c97)">
     <!-- 0 -->
     <g transform="translate(187.801864 225.070225) scale(0.1 -0.1)">
      <defs>
       <path id="DejaVuSans-Bold-30" d="M 2944 2338 
Q 2944 3213 2780 3570 
Q 2616 3928 2228 3928 
Q 1841 3928 1675 3570 
Q 1509 3213 1509 2338 
Q 1509 1453 1675 1090 
Q 1841 728 2228 728 
Q 2613 728 2778 1090 
Q 2944 1453 2944 2338 
z
M 4147 2328 
Q 4147 1169 3647 539 
Q 3147 -91 2228 -91 
Q 1306 -91 806 539 
Q 306 1169 306 2328 
Q 306 3491 806 4120 
Q 1306 4750 2228 4750 
Q 3147 4750 3647 4120 
Q 4147 3491 4147 2328 
z
" transform="scale(0.015625)"/>
      </defs>
      <use xlink:href="#DejaVuSans-Bold-30"/>
     </g>
    </g>
   </g>
   <g id="text_2">
    <g clip-path="url(#p86c5d88c97)">
     <!-- 1 -->
     <g transform="translate(187.801864 366.685795) scale(0.1 -0.1)">
      <defs>
       <path id="DejaVuSans-Bold-31" d="M 750 831 
L 1813 831 
L 1813 3847 
L 722 3622 
L 722 4441 
L 1806 4666 
L 2950 4666 
L 2950 831 
L 4013 831 
L 4013 0 
L 750 0 
L 750 831 
z
" transform="scale(0.015625)"/>
      </defs>
      <use xlink:href="#DejaVuSans-Bold-31"/>
     </g>
    </g>
   </g>
   <g id="text_3">
    <g clip-path="url(#p86c5d88c97)">
     <!-- 2 -->
     <g transform="translate(380.471773 528.775904) scale(0.1 -0.1)">
      <defs>
       <path id="DejaVuSans-Bold-32" d="M 1844 884 
L 3897 884 
L 3897 0 
L 506 0 
L 506 884 
L 2209 2388 
Q 2438 2594 2547 2791 
Q 2656 2988 2656 3200 
Q 2656 3528 2436 3728 
Q 2216 3928 1850 3928 
Q 1569 3928 1234 3808 
Q 900 3688 519 3450 
L 519 4475 
Q 925 4609 1322 4679 
Q 1719 4750 2100 4750 
Q 2938 4750 3402 4381 
Q 3866 4013 3866 3353 
Q 3866 2972 3669 2642 
Q 3472 2313 2841 1759 
L 1844 884 
z
" transform="scale(0.015625)"/>
      </defs>
      <use xlink:href="#DejaVuSans-Bold-32"/>
     </g>
    </g>
   </g>
   <g id="text_4">
    <g clip-path="url(#p86c5d88c97)">
     <!-- 3 -->
     <g transform="translate(502.886356 457.968119) scale(0.1 -0.1)">
      <defs>
       <path id="DejaVuSans-Bold-33" d="M 2981 2516 
Q 3453 2394 3698 2092 
Q 3944 1791 3944 1325 
Q 3944 631 3412 270 
Q 2881 -91 1863 -91 
Q 1503 -91 1142 -33 
Q 781 25 428 141 
L 428 1069 
Q 766 900 1098 814 
Q 1431 728 1753 728 
Q 2231 728 2486 893 
Q 2741 1059 2741 1369 
Q 2741 1688 2480 1852 
Q 2219 2016 1709 2016 
L 1228 2016 
L 1228 2791 
L 1734 2791 
Q 2188 2791 2409 2933 
Q 2631 3075 2631 3366 
Q 2631 3634 2415 3781 
Q 2200 3928 1806 3928 
Q 1516 3928 1219 3862 
Q 922 3797 628 3669 
L 628 4550 
Q 984 4650 1334 4700 
Q 1684 4750 2022 4750 
Q 2931 4750 3382 4451 
Q 3834 4153 3834 3553 
Q 3834 3144 3618 2883 
Q 3403 2622 2981 2516 
z
" transform="scale(0.015625)"/>
      </defs>
      <use xlink:href="#DejaVuSans-Bold-33"/>
     </g>
    </g>
   </g>
   <g id="text_5">
    <g clip-path="url(#p86c5d88c97)">
     <!-- 4 -->
     <g transform="translate(654.041755 127.81616) scale(0.1 -0.1)">
      <defs>
       <path id="DejaVuSans-Bold-34" d="M 2356 3675 
L 1038 1722 
L 2356 1722 
L 2356 3675 
z
M 2156 4666 
L 3494 4666 
L 3494 1722 
L 4159 1722 
L 4159 850 
L 3494 850 
L 3494 0 
L 2356 0 
L 2356 850 
L 288 850 
L 288 1881 
L 2156 4666 
z
" transform="scale(0.015625)"/>
      </defs>
      <use xlink:href="#DejaVuSans-Bold-34"/>
     </g>
    </g>
   </g>
   <g id="text_6">
    <g clip-path="url(#p86c5d88c97)">
     <!-- 5 -->
     <g transform="translate(482.129101 229.335755) scale(0.1 -0.1)">
      <defs>
       <path id="DejaVuSans-Bold-35" d="M 678 4666 
L 3669 4666 
L 3669 3781 
L 1638 3781 
L 1638 3059 
Q 1775 3097 1914 3117 
Q 2053 3138 2203 3138 
Q 3056 3138 3531 2711 
Q 4006 2284 4006 1522 
Q 4006 766 3489 337 
Q 2972 -91 2053 -91 
Q 1656 -91 1267 -14 
Q 878 63 494 219 
L 494 1166 
Q 875 947 1217 837 
Q 1559 728 1863 728 
Q 2300 728 2551 942 
Q 2803 1156 2803 1522 
Q 2803 1891 2551 2103 
Q 2300 2316 1863 2316 
Q 1603 2316 1309 2248 
Q 1016 2181 678 2041 
L 678 4666 
z
" transform="scale(0.015625)"/>
      </defs>
      <use xlink:href="#DejaVuSans-Bold-35"/>
     </g>
    </g>
   </g>
   <g id="text_7">
    <g clip-path="url(#p86c5d88c97)">
     <!-- 6 -->
     <g transform="translate(400.696791 146.584488) scale(0.1 -0.1)">
      <defs>
       <path id="DejaVuSans-Bold-36" d="M 2316 2303 
Q 2000 2303 1842 2098 
Q 1684 1894 1684 1484 
Q 1684 1075 1842 870 
Q 2000 666 2316 666 
Q 2634 666 2792 870 
Q 2950 1075 2950 1484 
Q 2950 1894 2792 2098 
Q 2634 2303 2316 2303 
z
M 3803 4544 
L 3803 3681 
Q 3506 3822 3243 3889 
Q 2981 3956 2731 3956 
Q 2194 3956 1894 3657 
Q 1594 3359 1544 2772 
Q 1750 2925 1990 3001 
Q 2231 3078 2516 3078 
Q 3231 3078 3670 2659 
Q 4109 2241 4109 1563 
Q 4109 813 3618 361 
Q 3128 -91 2303 -91 
Q 1394 -91 895 523 
Q 397 1138 397 2266 
Q 397 3422 980 4083 
Q 1563 4744 2578 4744 
Q 2900 4744 3203 4694 
Q 3506 4644 3803 4544 
z
" transform="scale(0.015625)"/>
      </defs>
      <use xlink:href="#DejaVuSans-Bold-36"/>
     </g>
    </g>
   </g>
   <g id="text_8">
    <g clip-path="url(#p86c5d88c97)">
     <!-- 7 -->
     <g transform="translate(226.655188 208.861215) scale(0.1 -0.1)">
      <defs>
       <path id="DejaVuSans-Bold-37" d="M 428 4666 
L 3944 4666 
L 3944 3988 
L 2125 0 
L 953 0 
L 2675 3781 
L 428 3781 
L 428 4666 
z
" transform="scale(0.015625)"/>
      </defs>
      <use xlink:href="#DejaVuSans-Bold-37"/>
     </g>
    </g>
   </g>
   <g id="text_9">
    <g clip-path="url(#p86c5d88c97)">
     <!-- 8 -->
     <g transform="translate(178.753829 115.872678) scale(0.1 -0.1)">
      <defs>
       <path id="DejaVuSans-Bold-38" d="M 2228 2088 
Q 1891 2088 1709 1903 
Q 1528 1719 1528 1375 
Q 1528 1031 1709 848 
Q 1891 666 2228 666 
Q 2563 666 2741 848 
Q 2919 1031 2919 1375 
Q 2919 1722 2741 1905 
Q 2563 2088 2228 2088 
z
M 1350 2484 
Q 925 2613 709 2878 
Q 494 3144 494 3541 
Q 494 4131 934 4440 
Q 1375 4750 2228 4750 
Q 3075 4750 3515 4442 
Q 3956 4134 3956 3541 
Q 3956 3144 3739 2878 
Q 3522 2613 3097 2484 
Q 3572 2353 3814 2058 
Q 4056 1763 4056 1313 
Q 4056 619 3595 264 
Q 3134 -91 2228 -91 
Q 1319 -91 855 264 
Q 391 619 391 1313 
Q 391 1763 633 2058 
Q 875 2353 1350 2484 
z
M 1631 3419 
Q 1631 3141 1786 2991 
Q 1941 2841 2228 2841 
Q 2509 2841 2662 2991 
Q 2816 3141 2816 3419 
Q 2816 3697 2662 3845 
Q 2509 3994 2228 3994 
Q 1941 3994 1786 3844 
Q 1631 3694 1631 3419 
z
" transform="scale(0.015625)"/>
      </defs>
      <use xlink:href="#DejaVuSans-Bold-38"/>
     </g>
    </g>
   </g>
   <g id="text_10">
    <g clip-path="url(#p86c5d88c97)">
     <!-- 9 -->
     <g transform="translate(59.000433 52.742846) scale(0.1 -0.1)">
      <defs>
       <path id="DejaVuSans-Bold-39" d="M 641 103 
L 641 966 
Q 928 831 1190 764 
Q 1453 697 1709 697 
Q 2247 697 2547 995 
Q 2847 1294 2900 1881 
Q 2688 1725 2447 1647 
Q 2206 1569 1925 1569 
Q 1209 1569 770 1986 
Q 331 2403 331 3084 
Q 331 3838 820 4291 
Q 1309 4744 2131 4744 
Q 3044 4744 3544 4128 
Q 4044 3513 4044 2388 
Q 4044 1231 3459 570 
Q 2875 -91 1856 -91 
Q 1528 -91 1228 -42 
Q 928 6 641 103 
z
M 2125 2350 
Q 2441 2350 2600 2554 
Q 2759 2759 2759 3169 
Q 2759 3575 2600 3781 
Q 2441 3988 2125 3988 
Q 1809 3988 1650 3781 
Q 1491 3575 1491 3169 
Q 1491 2759 1650 2554 
Q 1809 2350 2125 2350 
z
" transform="scale(0.015625)"/>
      </defs>
      <use xlink:href="#DejaVuSans-Bold-39"/>
     </g>
    </g>
   </g>
   <g id="text_11">
    <g clip-path="url(#p86c5d88c97)">
     <!-- 10 -->
     <g transform="translate(187.516381 115.872678) scale(0.1 -0.1)">
      <use xlink:href="#DejaVuSans-Bold-31"/>
      <use xlink:href="#DejaVuSans-Bold-30" x="69.580078"/>
     </g>
    </g>
   </g>
   <g id="text_12">
    <g clip-path="url(#p86c5d88c97)">
     <!-- 11 -->
     <g transform="translate(453.102803 268.578623) scale(0.1 -0.1)">
      <use xlink:href="#DejaVuSans-Bold-31"/>
      <use xlink:href="#DejaVuSans-Bold-31" x="69.580078"/>
     </g>
    </g>
   </g>
   <g id="text_13">
    <g clip-path="url(#p86c5d88c97)">
     <!-- 12 -->
     <g transform="translate(340.800729 137.200324) scale(0.1 -0.1)">
      <use xlink:href="#DejaVuSans-Bold-31"/>
      <use xlink:href="#DejaVuSans-Bold-32" x="69.580078"/>
     </g>
    </g>
   </g>
   <g id="text_14">
    <g clip-path="url(#p86c5d88c97)">
     <!-- 13 -->
     <g transform="translate(376.992867 357.30163) scale(0.1 -0.1)">
      <use xlink:href="#DejaVuSans-Bold-31"/>
      <use xlink:href="#DejaVuSans-Bold-33" x="69.580078"/>
     </g>
    </g>
   </g>
  </g>
 </g>
 <defs>
  <clipPath id="p86c5d88c97">
   <rect x="0" y="0" width="720" height="576"/>
  </clipPath>
 </defs>
</svg>
